<?xml version="1.0" encoding="utf-8"?>
<!-- Generator: Adobe Illustrator 15.1.0, SVG Export Plug-In . SVG Version: 6.00 Build 0)  -->
<!DOCTYPE svg PUBLIC "-//W3C//DTD SVG 1.1//EN" "http://www.w3.org/Graphics/SVG/1.1/DTD/svg11.dtd">
<svg version="1.1" id="Layer_1" xmlns="http://www.w3.org/2000/svg" xmlns:xlink="http://www.w3.org/1999/xlink" x="0px" y="0px"
	 width="20px" height="20px" viewBox="0 0 24 24" enable-background="new 0 0 24 24" xml:space="preserve">
<path fill="#AAAAAA" d="M23.194,18.239L14.115,2.52l-0.004,0.002c-0.113-0.231-0.26-0.448-0.451-0.64
	c-0.917-0.916-2.402-0.916-3.318,0c-0.167,0.166-0.303,0.352-0.406,0.549V2.429L0.862,18.152v0.004
	c-0.144,0.21-0.257,0.447-0.325,0.709c-0.336,1.252,0.407,2.539,1.659,2.873c0.225,0.061,0.453,0.085,0.678,0.078l18.154-0.003
	v-0.003c0.869,0.061,1.736-0.36,2.203-1.164C23.676,19.871,23.634,18.949,23.194,18.239z M13.109,16.568v2.219h-2.218v-2.219H13.109
	z M12.449,15.129H11.55l-0.5-5.347V6h1.899v3.782L12.449,15.129z"/>
</svg>
